<svg viewBox="108 17 28 28" fill="none" xmlns="http://www.w3.org/2000/svg" aria-hidden="true">
  <path d="M132.92 35.5247L133.845 35.9051C134.004 35.5194 133.906 35.0758 133.601 34.792C133.295 34.5082 132.845 34.4438 132.472 34.6305L132.92 35.5247ZM119.416 19.04L120.223 19.6306C120.469 19.295 120.481 18.8425 120.254 18.4941C120.027 18.1457 119.608 17.9741 119.202 18.0632L119.416 19.04ZM128.131 35.654C122.704 35.654 118.276 31.177 118.276 25.6197L116.276 25.6197C116.276 32.2505 121.568 37.654 128.131 37.654L128.131 35.654ZM132.472 34.6305C131.163 35.2858 129.691 35.654 128.131 35.654L128.131 37.654C130.009 37.654 131.788 37.2098 133.368 36.4189L132.472 34.6305ZM131.995 35.1444C130.346 39.1551 126.457 41.9575 121.938 41.9575L121.938 43.9575C127.311 43.9575 131.904 40.6251 133.845 35.9051L131.995 35.1444ZM121.938 41.9575C115.935 41.9575 111.04 37.0057 111.04 30.8626L109.04 30.8626C109.04 38.0792 114.799 43.9575 121.938 43.9575L121.938 41.9575ZM111.04 30.8626C111.04 25.5311 114.731 21.0918 119.631 20.0168L119.202 18.0632C113.382 19.34 109.04 24.5937 109.04 30.8626L111.04 30.8626ZM118.276 25.6197C118.276 23.3722 119.001 21.3011 120.223 19.6306L118.609 18.4494C117.143 20.4532 116.276 22.9358 116.276 25.6197L118.276 25.6197Z" fill="currentColor"/>
</svg>
