<svg viewBox="0 0 61 61" fill="none" xmlns="http://www.w3.org/2000/svg" aria-hidden="true">
<rect x="1" y="1" width="59" height="59" rx="29.5" stroke="white" stroke-width="2"/>
<path d="M41.92 34.5224L42.8449 34.9026C43.0035 34.5169 42.9061 34.0733 42.6004 33.7896C42.2948 33.5058 41.8452 33.4415 41.4723 33.6283L41.92 34.5224ZM30.9386 41.958L30.9386 42.958L30.9386 42.958L30.9386 41.958ZM19.0402 29.8623L18.0402 29.8622L18.0402 29.8623L19.0402 29.8623ZM28.4152 18.0429L29.2223 18.6333C29.4678 18.2977 29.48 17.8452 29.2529 17.4968C29.0258 17.1485 28.6069 16.977 28.2007 17.0662L28.4152 18.0429ZM26.2765 24.6201L25.2765 24.6201L25.2765 24.6201L26.2765 24.6201ZM37.131 35.6543L37.131 36.6543L37.131 36.6543L37.131 35.6543ZM41.92 34.5224L40.9951 34.1422C39.3459 38.154 35.4576 40.9578 30.9386 40.958L30.9386 41.958L30.9386 42.958C36.3119 42.9578 40.9043 39.6234 42.8449 34.9026L41.92 34.5224ZM30.9386 41.958L30.9386 40.958C24.9353 40.958 20.0402 36.0054 20.0402 29.8623L19.0402 29.8623L18.0402 29.8623C18.0402 37.0788 23.7998 42.958 30.9386 42.958L30.9386 41.958ZM19.0402 29.8623L20.0402 29.8623C20.0403 24.5319 23.7302 20.0953 28.6296 19.0197L28.4152 18.0429L28.2007 17.0662C22.3825 18.3435 18.0404 23.5939 18.0402 29.8622L19.0402 29.8623ZM28.4152 18.0429L27.608 17.4526C26.1429 19.4558 25.2765 21.9372 25.2765 24.6201L26.2765 24.6201L27.2765 24.6201C27.2765 22.3736 28.0007 20.3035 29.2223 18.6333L28.4152 18.0429ZM26.2765 24.6201L25.2765 24.6201C25.2767 31.2507 30.5685 36.6543 37.131 36.6543L37.131 35.6543L37.131 34.6543C31.7039 34.6543 27.2767 30.1773 27.2765 24.62L26.2765 24.6201ZM37.131 35.6543L37.131 36.6543C39.0106 36.6542 40.7885 36.2074 42.3678 35.4166L41.92 34.5224L41.4723 33.6283C40.1622 34.2843 38.69 34.6542 37.131 34.6543L37.131 35.6543Z" fill="white"/>
</svg>
